<?xml version="1.0" encoding="utf-8"?>
<!-- Generator: Adobe Illustrator 27.3.1, SVG Export Plug-In . SVG Version: 6.00 Build 0)  -->
<svg version="1.1" id="Camada_1" xmlns="http://www.w3.org/2000/svg" xmlns:xlink="http://www.w3.org/1999/xlink" x="0px" y="0px"
	 viewBox="0 0 2500 593.1" style="enable-background:new 0 0 2500 593.1;" xml:space="preserve">
<style type="text/css">
	.st0{fill-rule:evenodd;clip-rule:evenodd;fill:#FFFFFF;fill-opacity:0;}
	.st1{fill-rule:evenodd;clip-rule:evenodd;}
	
		.st2{fill-rule:evenodd;clip-rule:evenodd;stroke:#000000;stroke-width:3.7742;stroke-linecap:round;stroke-linejoin:round;stroke-miterlimit:33.89;}
	.st3{fill-rule:evenodd;clip-rule:evenodd;fill:#284890;}
	
		.st4{fill-rule:evenodd;clip-rule:evenodd;fill:#6E79B1;stroke:#000000;stroke-width:2.7366;stroke-linecap:square;stroke-linejoin:round;stroke-miterlimit:33.89;}
	.st5{fill-rule:evenodd;clip-rule:evenodd;fill:#FFFFFF;}
</style>
<g>
	<path class="st0" d="M0-939.5h2500v2500H0V-939.5z"/>
	<path class="st1" d="M1645.3,232.6c59.2,0,87,39.1,87,89.5c0,50.4-27.8,89.5-87,89.5s-87-39.1-87-89.5
		C1558.4,271.8,1586.2,232.6,1645.3,232.6L1645.3,232.6z M1645.4,200.5c-115.7,0-148.4,59.9-148.4,122.5s32.7,122.5,148.4,122.5
		c115.7,0,148.4-59.9,148.4-122.5S1761.1,200.5,1645.4,200.5z"/>
	<path class="st2" d="M1663.9,212.2c11.1,50.3,16.5,75.4,16.5,75.4l73.6,16.5c49.1,11.1,73.6,16.5,73.6,16.5l-73.6,16.6l-73.6,16.5
		l-16.5,73.6c-11.1,49-16.5,73.6-16.5,73.6s-5.6-24.5-16.6-73.6l-16.5-73.6l-75.4-16.5l-75.4-16.6l75.4-16.5
		c50.3-11,75.4-16.5,75.4-16.5c0,0,5.5-25.1,16.5-75.4c11-50.3,16.6-75.4,16.6-75.4S1652.9,161.9,1663.9,212.2z"/>
	<path class="st1" d="M1143.2,140.6V210h81.2v43.6h-81.2v106.2c0,25,10.4,38.6,36.8,38.6c15,0,33.1-1.3,42.7-4.1v43.6
		c-18.6,2.3-39.5,4.1-58.5,4.1c-69,0-89.8-22.2-89.8-75.8V253.5h-63.5V210h63.5v-48.5L1143.2,140.6z M1325,253.5h-59V210h59v-19.5
		c0-60.8,32.2-83,97.6-83c19,0,42.6,0.9,59,2.7v42.7c-8.6-0.4-20.4-1.8-31.3-1.8c-45.8,0-56.3,15-56.3,52.2v6.8h70.8v43.6H1394
		v184.2h-69V253.5z M1837.5,110.2h69v327.6h-69V110.2z M1971.8,210h69v227.8h-69V210z M1968.2,110.2h76.2v55.4h-76.2V110.2z
		 M2241.3,244.9c52.2,0,76.7,34.5,76.7,78.9s-24.5,79-76.7,79c-52.2,0-76.7-34.5-76.7-79S2189.2,244.9,2241.3,244.9z M2241.3,201.4
		c-115.7,0-148.4,59.9-148.4,122.5s32.7,122.5,148.4,122.5c115.7,0,148.4-59.9,148.4-122.5C2389.7,261.3,2357,201.4,2241.3,201.4z
		 M188.6,323.9c0-43.1,29.1-78.9,72.6-78.9s72.6,35.8,72.6,78.9c0,43.1-29,79-72.6,79S188.6,367,188.6,323.9L188.6,323.9z
		 M119.7,524.9h69V406.5h0.9c22.7,30.8,59,39.9,93,39.9c44.5,0,123-22.2,123-124.3c0-64.4-41.3-120.7-125.7-120.7
		c-36.3,0-73.5,10.4-93,39.9h-0.9c0-10.4-0.9-20.9-1.8-31.3h-66.2c0.9,12.7,1.8,34.9,1.8,53.5L119.7,524.9L119.7,524.9z
		 M592.9,244.9c52.2,0,76.7,34.5,76.7,78.9s-24.5,79-76.7,79s-76.7-34.5-76.7-79S540.7,244.9,592.9,244.9L592.9,244.9z M592.9,201.4
		c-115.7,0-148.4,59.9-148.4,122.5s32.7,122.5,148.4,122.5s148.4-59.9,148.4-122.5C741.3,261.3,708.6,201.4,592.9,201.4z
		 M784.1,267.2c0-21.8-0.9-41.7-1.8-57.2h66.2c0.9,14.1,1.8,27.7,1.8,41.7h0.9c6.8-15.4,22.2-46.3,75.3-46.3
		c14.5,0,28.1,1.4,44.5,4.6v51.7c-4.1-0.9-9.1-1.4-14.5-1.8c-5-0.5-10.9-0.9-17.7-0.9c-55.8,0-85.8,24.1-85.8,86.7v92.1h-69
		L784.1,267.2L784.1,267.2z"/>
	<path class="st3" d="M1637.8,221.3c59.2,0,87,39.1,87,89.5c0,50.4-27.8,89.5-87,89.5s-86.9-39.1-86.9-89.5
		S1578.6,221.3,1637.8,221.3L1637.8,221.3z M1637.8,189.1c-115.7,0-148.4,59.9-148.4,122.5s32.7,122.5,148.4,122.5
		c115.7,0,148.4-59.9,148.4-122.5S1753.5,189.1,1637.8,189.1z"/>
	<path class="st4" d="M1656.4,200.8l16.6,75.4l73.6,16.6c49,11,73.6,16.5,73.6,16.5s-24.5,5.5-73.6,16.6
		c-49,11.1-73.6,16.5-73.6,16.5l-16.6,73.6c-11.1,49.1-16.5,73.6-16.5,73.6l-16.5-73.6l-16.6-73.6l-75.4-16.5l-75.4-16.6l75.4-16.5
		l75.4-16.6l16.6-75.4l16.5-75.4C1639.8,125.4,1645.3,150.6,1656.4,200.8L1656.4,200.8z"/>
	<path class="st5" d="M1640.3,217.8v-92c11,50.3,22.1,100.5,33.1,150.8c0,0-5.5,5.5-16.5,16.6l-16.6,16.5L1640.3,217.8L1640.3,217.8
		z M1732.2,309.8h92c0,0-25.1,5.5-75.4,16.5l-75.4,16.5l-16.5-16.5l-16.6-16.5H1732.2z M1640.3,401.8v92l-16.6-75.4l-16.5-75.4
		l16.5-16.5l16.6-16.5V401.8L1640.3,401.8z M1548.3,309.8h-92l75.4-16.5l75.4-16.6c0,0,5.5,5.5,16.5,16.6l16.6,16.5H1548.3
		L1548.3,309.8z"/>
	<path class="st3" d="M181.1,312.5c0-43.1,29-78.9,72.6-78.9c43.6,0,72.6,35.8,72.6,78.9s-29.1,79-72.6,79S181.1,355.6,181.1,312.5
		L181.1,312.5z M112.1,513.5h69V395.1h0.9c22.7,30.9,59,39.9,93,39.9c44.5,0,123-22.2,123-124.3c0-64.4-41.3-120.7-125.7-120.7
		c-36.3,0-73.5,10.4-93,39.9h-0.9c0-10.4-0.9-20.9-1.8-31.3h-66.2c0.9,12.7,1.8,34.9,1.8,53.5L112.1,513.5L112.1,513.5z
		 M585.4,233.6c52.2,0,76.7,34.5,76.7,78.9c0,44.5-24.5,79-76.7,79c-52.2,0-76.7-34.5-76.7-79C508.7,268.1,533.2,233.6,585.4,233.6
		L585.4,233.6z M585.4,190C469.7,190,437,249.9,437,312.5c0,62.6,32.7,122.5,148.4,122.5c115.7,0,148.4-59.9,148.4-122.5
		C733.8,249.9,701.1,190,585.4,190L585.4,190z M776.6,255.8c0-21.8-0.9-41.7-1.8-57.2H841c0.9,14.1,1.8,27.7,1.8,41.7h0.9
		c6.8-15.4,22.2-46.3,75.3-46.3c14.5,0,28.1,1.4,44.5,4.5v51.7c-4.1-0.9-9.1-1.4-14.5-1.8c-5.9-0.6-11.8-0.9-17.7-0.9
		c-55.8,0-85.8,24-85.8,86.7v92.1h-69V255.8z M1135.7,129.2v69.4h81.2v43.6h-81.2v106.2c0,25,10.4,38.6,36.7,38.6
		c15,0,33.1-1.4,42.7-4.1v43.6c-18.6,2.3-39.5,4.1-58.5,4.1c-69,0-89.8-22.2-89.8-75.8V242.2h-63.5v-43.6h63.5v-48.5L1135.7,129.2z
		 M1317.4,242.2h-59v-43.6h59v-19.5c0-60.8,32.2-83,97.6-83c19.1,0,42.7,0.9,59,2.7v42.7c-8.6-0.5-20.4-1.8-31.3-1.8
		c-45.8,0-56.3,15-56.3,52.2v6.8h70.8v43.6h-70.8v184.2h-69V242.2z M1829.9,98.8h69v327.6h-69V98.8z M1964.2,198.6h69v227.8h-69
		V198.6z M1960.6,98.8h76.2v55.4h-76.2V98.8z M2233.8,233.6c52.2,0,76.7,34.5,76.7,78.9c0,44.5-24.5,79-76.7,79
		c-52.2,0-76.7-34.5-76.7-79C2157.1,268.1,2181.6,233.6,2233.8,233.6z M2233.8,190c-115.7,0-148.4,59.9-148.4,122.5
		c0,62.6,32.7,122.5,148.4,122.5c115.7,0,148.4-59.9,148.4-122.5C2382.2,249.9,2349.5,190,2233.8,190z"/>
</g>
</svg>
