<svg id="visual" viewBox="0 0 373 283" width="373" height="283" xmlns="http://www.w3.org/2000/svg" xmlns:xlink="http://www.w3.org/1999/xlink" version="1.1"><rect width="373" height="283" fill="#001829"></rect><g><g transform="translate(205 239)"><path d="M0 -9.6L8.3 -4.8L8.3 4.8L0 9.6L-8.3 4.8L-8.3 -4.8Z" fill="none" stroke="#297EA6" stroke-width="2"></path></g><g transform="translate(20 98)"><path d="M0 -9L7.8 -4.5L7.8 4.5L0 9L-7.8 4.5L-7.8 -4.5Z" fill="none" stroke="#297EA6" stroke-width="2"></path></g><g transform="translate(234 137)"><path d="M0 -9L7.8 -4.5L7.8 4.5L0 9L-7.8 4.5L-7.8 -4.5Z" fill="none" stroke="#297EA6" stroke-width="2"></path></g><g transform="translate(91 108)"><path d="M0 -9L7.8 -4.5L7.8 4.5L0 9L-7.8 4.5L-7.8 -4.5Z" fill="none" stroke="#297EA6" stroke-width="2"></path></g><g transform="translate(294 14)"><path d="M0 -9L7.8 -4.5L7.8 4.5L0 9L-7.8 4.5L-7.8 -4.5Z" fill="none" stroke="#297EA6" stroke-width="2"></path></g><g transform="translate(216 128)"><path d="M0 -9L7.8 -4.5L7.8 4.5L0 9L-7.8 4.5L-7.8 -4.5Z" fill="none" stroke="#297EA6" stroke-width="2"></path></g><g transform="translate(323 254)"><path d="M0 -9L7.8 -4.5L7.8 4.5L0 9L-7.8 4.5L-7.8 -4.5Z" fill="none" stroke="#297EA6" stroke-width="2"></path></g></g></svg>