<svg id="visual" viewBox="0 0 373 283" width="373" height="283" xmlns="http://www.w3.org/2000/svg" xmlns:xlink="http://www.w3.org/1999/xlink" version="1.1"><rect width="373" height="283" fill="#ffffff"></rect><g><g transform="translate(72 199)"><path d="M0 -9.6L8.3 -4.8L8.3 4.8L0 9.6L-8.3 4.8L-8.3 -4.8Z" fill="#c2e7ff"></path></g><g transform="translate(319 144)"><path d="M0 -9L7.8 -4.5L7.8 4.5L0 9L-7.8 4.5L-7.8 -4.5Z" fill="#c2e7ff"></path></g><g transform="translate(125 190)"><path d="M0 -9L7.8 -4.5L7.8 4.5L0 9L-7.8 4.5L-7.8 -4.5Z" fill="#c2e7ff"></path></g><g transform="translate(16 77)"><path d="M0 -9L7.8 -4.5L7.8 4.5L0 9L-7.8 4.5L-7.8 -4.5Z" fill="#c2e7ff"></path></g><g transform="translate(191 104)"><path d="M0 -9L7.8 -4.5L7.8 4.5L0 9L-7.8 4.5L-7.8 -4.5Z" fill="#c2e7ff"></path></g><g transform="translate(117 115)"><path d="M0 -9L7.8 -4.5L7.8 4.5L0 9L-7.8 4.5L-7.8 -4.5Z" fill="#c2e7ff"></path></g><g transform="translate(124 240)"><path d="M0 -9L7.8 -4.5L7.8 4.5L0 9L-7.8 4.5L-7.8 -4.5Z" fill="#c2e7ff"></path></g><g transform="translate(161 269)"><path d="M0 -9L7.8 -4.5L7.8 4.5L0 9L-7.8 4.5L-7.8 -4.5Z" fill="#c2e7ff"></path></g><g transform="translate(317 267)"><path d="M0 -9L7.8 -4.5L7.8 4.5L0 9L-7.8 4.5L-7.8 -4.5Z" fill="#c2e7ff"></path></g><g transform="translate(259 131)"><path d="M0 -9L7.8 -4.5L7.8 4.5L0 9L-7.8 4.5L-7.8 -4.5Z" fill="#c2e7ff"></path></g><g transform="translate(215 186)"><path d="M0 -9L7.8 -4.5L7.8 4.5L0 9L-7.8 4.5L-7.8 -4.5Z" fill="#c2e7ff"></path></g><g transform="translate(84 31)"><path d="M0 -9L7.8 -4.5L7.8 4.5L0 9L-7.8 4.5L-7.8 -4.5Z" fill="#c2e7ff"></path></g><g transform="translate(22 120)"><path d="M0 -9L7.8 -4.5L7.8 4.5L0 9L-7.8 4.5L-7.8 -4.5Z" fill="#c2e7ff"></path></g><g transform="translate(359 109)"><path d="M0 -9L7.8 -4.5L7.8 4.5L0 9L-7.8 4.5L-7.8 -4.5Z" fill="#c2e7ff"></path></g><g transform="translate(37 188)"><path d="M0 -9L7.8 -4.5L7.8 4.5L0 9L-7.8 4.5L-7.8 -4.5Z" fill="#c2e7ff"></path></g><g transform="translate(138 36)"><path d="M0 -9L7.8 -4.5L7.8 4.5L0 9L-7.8 4.5L-7.8 -4.5Z" fill="#c2e7ff"></path></g><g transform="translate(3 215)"><path d="M0 -9L7.8 -4.5L7.8 4.5L0 9L-7.8 4.5L-7.8 -4.5Z" fill="#c2e7ff"></path></g><g transform="translate(103 153)"><path d="M0 -9L7.8 -4.5L7.8 4.5L0 9L-7.8 4.5L-7.8 -4.5Z" fill="#c2e7ff"></path></g></g></svg>