<svg id="visual" viewBox="0 0 373 283" width="373" height="283" xmlns="http://www.w3.org/2000/svg" xmlns:xlink="http://www.w3.org/1999/xlink" version="1.1"><path d="M0 9L23 9L23 12L47 12L47 15L70 15L70 9L93 9L93 12L117 12L117 26L140 26L140 26L163 26L163 4L187 4L187 15L210 15L210 4L233 4L233 38L256 38L256 4L280 4L280 7L303 7L303 38L326 38L326 7L350 7L350 15L373 15L373 15L373 0L373 0L350 0L350 0L326 0L326 0L303 0L303 0L280 0L280 0L256 0L256 0L233 0L233 0L210 0L210 0L187 0L187 0L163 0L163 0L140 0L140 0L117 0L117 0L93 0L93 0L70 0L70 0L47 0L47 0L23 0L23 0L0 0Z" fill="#c2e7ff"></path><path d="M0 24L23 24L23 58L47 58L47 46L70 46L70 52L93 52L93 29L117 29L117 58L140 58L140 60L163 60L163 41L187 41L187 38L210 38L210 9L233 9L233 63L256 63L256 35L280 35L280 46L303 46L303 72L326 72L326 32L350 32L350 21L373 21L373 58L373 13L373 13L350 13L350 5L326 5L326 36L303 36L303 5L280 5L280 2L256 2L256 36L233 36L233 2L210 2L210 13L187 13L187 2L163 2L163 24L140 24L140 24L117 24L117 10L93 10L93 7L70 7L70 13L47 13L47 10L23 10L23 7L0 7Z" fill="#cbeaff"></path><path d="M0 72L23 72L23 63L47 63L47 94L70 94L70 97L93 97L93 80L117 80L117 66L140 66L140 109L163 109L163 58L187 58L187 58L210 58L210 77L233 77L233 69L256 69L256 63L280 63L280 46L303 46L303 106L326 106L326 43L350 43L350 72L373 72L373 60L373 56L373 19L350 19L350 30L326 30L326 70L303 70L303 44L280 44L280 33L256 33L256 61L233 61L233 7L210 7L210 36L187 36L187 39L163 39L163 58L140 58L140 56L117 56L117 27L93 27L93 50L70 50L70 44L47 44L47 56L23 56L23 22L0 22Z" fill="#d4eeff"></path><path d="M0 80L23 80L23 205L47 205L47 114L70 114L70 120L93 120L93 143L117 143L117 174L140 174L140 171L163 171L163 94L187 94L187 97L210 97L210 159L233 159L233 185L256 185L256 123L280 123L280 80L303 80L303 216L326 216L326 126L350 126L350 159L373 159L373 179L373 58L373 70L350 70L350 41L326 41L326 104L303 104L303 44L280 44L280 61L256 61L256 67L233 67L233 75L210 75L210 56L187 56L187 56L163 56L163 107L140 107L140 64L117 64L117 78L93 78L93 95L70 95L70 92L47 92L47 61L23 61L23 70L0 70Z" fill="#ddf1ff"></path><path d="M0 109L23 109L23 222L47 222L47 134L70 134L70 159L93 159L93 193L117 193L117 179L140 179L140 202L163 202L163 109L187 109L187 134L210 134L210 191L233 191L233 210L256 210L256 159L280 159L280 117L303 117L303 230L326 230L326 162L350 162L350 168L373 168L373 210L373 177L373 157L350 157L350 124L326 124L326 214L303 214L303 78L280 78L280 121L256 121L256 183L233 183L233 157L210 157L210 95L187 95L187 92L163 92L163 169L140 169L140 172L117 172L117 141L93 141L93 118L70 118L70 112L47 112L47 203L23 203L23 78L0 78Z" fill="#e5f5ff"></path><path d="M0 165L23 165L23 256L47 256L47 199L70 199L70 171L93 171L93 213L117 213L117 193L140 193L140 256L163 256L163 131L187 131L187 208L210 208L210 261L233 261L233 253L256 253L256 162L280 162L280 182L303 182L303 239L326 239L326 242L350 242L350 242L373 242L373 213L373 208L373 166L350 166L350 160L326 160L326 228L303 228L303 115L280 115L280 157L256 157L256 208L233 208L233 189L210 189L210 132L187 132L187 107L163 107L163 200L140 200L140 177L117 177L117 191L93 191L93 157L70 157L70 132L47 132L47 220L23 220L23 107L0 107Z" fill="#eef8ff"></path><path d="M0 179L23 179L23 261L47 261L47 233L70 233L70 171L93 171L93 222L117 222L117 225L140 225L140 276L163 276L163 168L187 168L187 242L210 242L210 276L233 276L233 278L256 278L256 168L280 168L280 193L303 193L303 273L326 273L326 259L350 259L350 267L373 267L373 247L373 211L373 240L350 240L350 240L326 240L326 237L303 237L303 180L280 180L280 160L256 160L256 251L233 251L233 259L210 259L210 206L187 206L187 129L163 129L163 254L140 254L140 191L117 191L117 211L93 211L93 169L70 169L70 197L47 197L47 254L23 254L23 163L0 163Z" fill="#f7fcff"></path><path d="M0 284L23 284L23 284L47 284L47 284L70 284L70 284L93 284L93 284L117 284L117 284L140 284L140 284L163 284L163 284L187 284L187 284L210 284L210 284L233 284L233 284L256 284L256 284L280 284L280 284L303 284L303 284L326 284L326 284L350 284L350 284L373 284L373 284L373 245L373 265L350 265L350 257L326 257L326 271L303 271L303 191L280 191L280 166L256 166L256 276L233 276L233 274L210 274L210 240L187 240L187 166L163 166L163 274L140 274L140 223L117 223L117 220L93 220L93 169L70 169L70 231L47 231L47 259L23 259L23 177L0 177Z" fill="#ffffff"></path></svg>